<svg width="206" height="107" fill="none" xmlns="http://www.w3.org/2000/svg"><path d="M12.717 78.323C5.551 78.323 0 72.267 0 63.889c0-8.377 6.661-14.433 12.415-14.433 4.642 0 6.56 2.423 7.57 2.423.807 0 1.311-.707 1.917-2.019h.404v9.589H21.8c-1.413-5.249-4.037-9.488-9.286-9.488-4.642 0-8.377 4.44-8.377 13.928 0 6.36 1.514 13.727 9.084 13.727 5.551 0 7.973-3.633 9.185-7.67l.504.201c-1.514 5.047-4.542 8.175-10.194 8.175zm19.379-.405l-6.46-15.14c-.504-1.11-.706-1.21-2.523-1.412v-.404h8.478v.404c-3.027.202-3.431.505-2.624 2.321l4.643 10.9 4.441-10.698c.807-1.918.404-2.321-2.927-2.523v-.404h6.258v.404c-1.615.202-1.716.505-2.624 2.523l-6.763 15.544c-2.321 5.349-3.633 6.661-6.258 6.661-1.715 0-2.927-.908-2.927-2.422-.1-1.212.808-2.22 2.019-2.423h.202a1.38 1.38 0 011.413 1.413c0 1.212-1.211 1.918-1.211 2.524 0 .201.404.403 1.009.403 1.615 0 3.129-1.009 5.047-5.652l.807-2.019z" fill="#000"/><path d="M50.97 78.12c-1.817 0-3.633-.605-4.945-1.816-.808-.707-1.212-.808-1.817.1l-.808 1.414h-.403V51.576c0-1.01-.202-1.615-3.23-1.514v-.404l6.056-.404v15.04c.908-2.221 3.129-3.735 5.55-3.634 3.433 0 7.369 2.624 7.369 8.882.1 6.055-4.34 8.579-7.772 8.579zm-.303-.504c2.524 0 4.946-1.413 4.946-7.772 0-5.349-1.11-8.276-4.946-8.276-3.23 0-4.844 2.422-4.844 5.248v5.047c.1 4.037 1.816 5.753 4.844 5.753zm13.323-9.79c0 .504-.1 1.009-.1 1.615 0 6.56 2.724 7.872 5.248 7.872 2.523 0 4.239-1.11 5.652-3.431l.302.201c-1.11 2.625-3.734 4.24-6.56 4.24-4.643 0-7.873-3.533-7.873-8.68 0-5.148 3.735-8.883 7.57-8.883 4.643 0 6.56 3.23 6.965 7.268H63.99v-.202zm0-.505h7.873c-.303-3.633-1.11-6.258-3.634-6.258-2.523 0-3.835 1.716-4.239 6.258zm11.91-6.359l5.854-.202v4.441c1.211-3.128 3.028-4.642 4.441-4.642 1.11-.101 2.12.706 2.22 1.816 0 .808-.706 1.514-1.514 1.514h-.1c-.707 0-2.12-1.21-2.322-1.21-1.413 0-2.826 2.623-2.826 4.036V75.9c0 .908.202 1.413 2.725 1.413h.606v.404h-9.185v-.404h.303c2.422 0 2.725-.404 2.725-1.615v-13.12c0-.606-.404-1.111-3.028-1.212l.101-.404zM95.682 78.02c-3.128 0-4.239-1.817-5.349-1.817-.505 0-.706.504-1.01 1.514h-.302V71.66h.404c1.514 3.532 3.633 5.955 6.257 5.955 2.625 0 3.937-1.615 3.937-3.634 0-2.422-2.322-2.826-4.845-3.431-2.725-.707-5.35-1.413-5.35-5.45 0-2.726 2.322-4.643 5.25-4.643 2.22 0 3.532 1.009 4.238 1.009.404 0 .808-.303 1.211-1.01h.303v5.653h-.404c-.706-2.927-2.725-5.148-5.45-5.148-2.422 0-3.431 1.413-3.431 3.028 0 2.422 1.917 3.028 4.239 3.634 2.927.807 5.955 1.312 5.955 5.248 0 3.533-2.826 5.147-5.653 5.147zm11.204-10.194v1.615c0 6.56 2.725 7.872 5.248 7.872s4.239-1.11 5.652-3.431l.303.201c-1.11 2.625-3.734 4.24-6.56 4.24-4.643 0-7.873-3.533-7.873-8.68 0-5.148 3.734-8.883 7.57-8.883 4.643 0 6.56 3.23 6.964 7.268h-11.304v-.202zm0-.505h7.872c-.302-3.633-1.11-6.258-3.633-6.258-2.523 0-3.835 1.716-4.239 6.258zm20.59 10.9c-4.542 0-8.075-3.028-8.075-8.882a8.638 8.638 0 018.479-8.68c4.642 0 6.055 2.422 6.055 4.34.101 1.211-.706 2.322-2.018 2.423-1.211 0-1.817-.606-1.817-1.413 0-1.413 1.312-2.423 1.312-3.23 0-.808-1.716-1.615-3.532-1.615-2.927 0-5.249 1.716-5.249 8.276s2.826 8.075 5.249 8.075c2.523-.101 4.743-1.514 5.854-3.735l.302.202c-1.11 2.22-2.927 4.24-6.56 4.24zm15.24.001c-2.826 0-5.349-1.918-5.349-4.744V62.779c0-.908-.303-1.413-2.22-1.413h-.606v-.404l5.652-.202v13.122c0 2.422 1.11 3.23 3.028 3.23a5.132 5.132 0 004.946-4.744v-9.589c0-.908-.303-1.413-2.625-1.413h-.807v-.404l6.258-.202v15.443c0 .807.403 1.11 3.532 1.211v.404l-6.358.202v-3.836c-.707 1.514-2.12 4.038-5.451 4.038z" fill="#000"/><path d="M154.424 60.962l5.854-.202v4.441c1.211-3.128 3.028-4.642 4.441-4.642 1.11-.101 2.12.706 2.221 1.816 0 .808-.707 1.514-1.514 1.514h-.101c-.707 0-2.12-1.21-2.322-1.21-1.413 0-2.826 2.623-2.826 4.036V75.9c0 .908.202 1.413 2.725 1.413h.606v.404h-9.185v-.404h.303c2.422 0 2.725-.404 2.725-1.615v-13.12c0-.606-.404-1.111-3.028-1.212l.101-.404zm13.02 16.856v-.404h.404c2.422 0 2.624-.404 2.624-1.615V62.577c0-.605-.303-1.01-3.028-1.211v-.404l5.854-.202V76c0 1.01.303 1.414 2.725 1.414h.606v.404h-9.185zm4.239-20.994c-1.11 0-1.917-.908-1.917-2.019 0-1.11.908-1.917 1.917-1.917 1.01 0 1.918.908 1.918 1.917 0 1.11-.807 1.918-1.918 2.019zM184.3 78.322c-1.514 0-4.542-1.009-4.542-4.239V61.568h-3.028v-.606h3.028V54.2h2.826v6.762h4.845v.606h-4.845v12.314c0 2.624 1.11 3.33 2.725 3.33 2.12 0 3.129-1.211 3.129-3.936h.404c0 3.129-1.312 5.046-4.542 5.046z" fill="#000"/><path d="M196.714 77.918l-6.459-15.14c-.505-1.11-.707-1.21-2.523-1.412v-.404h8.478v.404c-3.028.202-3.432.505-2.624 2.321l4.642 10.9 4.441-10.698c.808-1.918.404-2.321-2.927-2.523v-.404H206v.404c-1.615.202-1.716.505-2.624 2.523l-6.762 15.544c-2.322 5.349-3.634 6.661-6.258 6.661-1.716 0-2.927-.908-2.927-2.422-.101-1.212.807-2.322 2.018-2.423h.202c.808 0 1.413.606 1.413 1.413 0 1.212-1.211 1.918-1.211 2.524 0 .201.404.403 1.009.403 1.615 0 3.129-1.009 5.047-5.652l.807-2.019zm-125.659 28.16V94.774h7.772v1.918h-5.652v3.028h4.34v1.917h-4.34v4.34l-2.12.101zm15.645.203c-3.028 0-5.047-2.221-5.047-5.854 0-3.634 2.12-5.855 5.047-5.855 2.927 0 5.046 2.221 5.046 5.855 0 3.633-2.018 5.854-5.046 5.854zm0-9.79c-1.716 0-2.826 1.513-2.826 3.936 0 2.422 1.21 4.037 2.927 4.037 1.715 0 2.826-1.514 2.826-3.937 0-2.422-1.212-4.037-2.927-4.037zm11.102 9.587h-2.12V94.774h4.139c2.927 0 4.34 1.211 4.34 3.33 0 1.717-1.211 3.13-2.927 3.433.706.302 1.312.807 1.615 1.514l2.22 3.128h-2.624l-1.817-2.725c-.403-.706-1.21-1.211-2.018-1.11h-.808v3.734zm1.514-5.753c1.615 0 2.624-.706 2.624-1.917 0-1.212-.706-1.716-2.321-1.716h-1.817v3.633h1.514zm13.323 5.955c-2.624 0-4.441-1.413-4.441-4.643v-6.863h2.22v6.964c0 1.817 1.01 2.625 2.322 2.625s2.321-.909 2.321-2.625v-6.964h2.12v6.863c0 3.129-1.817 4.643-4.542 4.643zm18.975-8.882l-2.927 8.681h-2.12l-2.826-8.781-.404 8.68h-2.018l.605-11.305h3.028l2.826 8.579 2.826-8.579h3.028l.606 11.305h-2.12l-.504-8.58zm71.762-61.668H1.514v1.009h201.862v-1.01z" fill="#000"/><path d="M123.741 7.872h-1.009v3.634h.908c1.312 0 2.019-.606 2.019-1.817 0-1.211-.606-1.817-1.918-1.817zm-11.405 0h-.807v3.634h.706c1.312 0 2.019-.606 2.019-1.918 0-1.312-.606-1.716-1.918-1.716z" fill="#B9A569"/><path d="M104.06.202v23.113h42.694V.202H104.06zm8.276 13.626h-.807v4.138h-3.028V5.55h3.936c2.927 0 4.744 1.312 4.744 4.037 0 2.726-1.918 4.24-4.845 4.24zm13.727 4.138l-2.624-4.24h-.808v4.24h-3.028V5.55h4.239c2.927 0 4.643 1.312 4.643 3.937.101 1.514-.807 2.927-2.321 3.532l3.229 4.946h-3.33zm10.396.202c-3.432 0-5.753-2.625-5.753-6.46s2.321-6.46 5.753-6.46c3.431 0 5.753 2.625 5.753 6.46s-2.221 6.46-5.753 6.46z" fill="#B9A569"/><path d="M136.459 7.67c-1.716 0-2.726 1.616-2.726 4.038s1.01 4.037 2.726 4.037c1.715 0 2.826-1.615 2.826-4.037 0-2.422-1.111-4.037-2.826-4.037z" fill="#B9A569"/><path d="M83.167 23.315c-.908 0-1.817-.303-2.422-.908-.202-.202-.505-.303-.808-.404-.403 0-.807.1-1.11 1.211h-.404v-7.67h.505c.404 4.238 2.019 6.964 4.24 6.964 1.513 0 2.522-1.313 2.522-3.836 0-2.523-1.715-4.34-3.633-6.258-1.918-1.917-3.836-4.037-3.836-6.964 0-2.927 1.615-5.45 4.441-5.45.808 0 1.514.303 2.12.807.202.202.505.404.807.404.404 0 .707-.303.909-1.11h.403v7.67h-.504C85.993 3.937 84.984.808 82.56.808c-1.614 0-2.018 1.615-2.018 2.827 0 2.22 1.514 3.835 3.23 5.55 2.018 2.02 4.138 4.24 4.138 7.974 0 3.533-1.918 6.056-4.744 6.157zM59.751 3.23c-.404-2.019-.505-2.22-1.11-2.423l-.505-.1V.201h5.854v.504l-.504.101c-1.11.202-1.01 1.312-.707 2.725l2.624 13.02 1.918-10.395-.707-3.634c-.302-1.211-.403-1.615-1.009-1.817l-.404-.1V.1h6.056v.504l-.706.101c-1.11.202-.909 1.413-.707 2.726l2.524 13.02L74.89 4.138c.504-2.523.202-3.23-.808-3.33l-.706-.102V.202h4.239v.504l-.505.101c-.706.202-.807.909-1.312 3.028l-4.037 19.379h-.909l-3.128-15.14-2.826 15.14h-1.11L59.75 3.23zm33.206 20.085c2.726 0 4.542-1.918 4.542-5.45V2.22c0-.908.202-1.21.909-1.413l.706-.202V.101h-6.56v.504l.807.202c.707.202 1.01.404 1.01 1.312v16.15c0 1.816 0 4.138-1.918 4.138-.909 0-1.716-.606-1.817-1.514 0-.404.404-.707.808-1.01.605-.302 1.11-.908 1.11-1.615.1-.807-.404-1.614-1.211-1.816h-.101c-1.212-.101-2.322.908-2.322 2.12v.302c-.1 2.22 1.615 4.138 3.836 4.24.1.1.201.1.201.2z" fill="#000"/></svg>