<svg xmlns="http://www.w3.org/2000/svg" width="270.6" height="75"><path data-name="Path 1" d="M79.1 34.5c-7.1 0-12.6-6-12.6-14.3S73.1 5.9 78.8 5.9c4.6 0 6.5 2.4 7.5 2.4.8 0 1.3-.7 1.9-2h.4v9.5h-.5c-1.4-5.2-4-9.4-9.2-9.4-4.6 0-8.3 4.4-8.3 13.8 0 6.3 1.5 13.6 9 13.6 5.5 0 7.9-3.6 9.1-7.6l.5.2c-1.4 5-4.4 8.1-10.1 8.1z" fill="#fff"/><path data-name="Path 2" d="M98.3 34.2l-6.4-15c-.5-1.1-.7-1.2-2.5-1.4v-.4h8.4v.4c-3 .2-3.4.5-2.6 2.3l4.6 10.8 4.4-10.8c.8-1.9.4-2.3-2.9-2.5v-.4h6.2v.4c-1.6.2-1.7.5-2.6 2.5l-6.7 15.4c-2.3 5.3-3.6 6.6-6.2 6.6-1.7 0-2.9-.9-2.9-2.4a2.23 2.23 0 012-2.4h.2a1.367 1.367 0 011.4 1.4c0 1.2-1.2 1.9-1.2 2.5 0 .2.4.4 1 .4 1.6 0 3.1-1 5-5.6z" fill="#fff"/><path data-name="Path 3" d="M117 34.4a7.237 7.237 0 01-4.9-1.8c-.8-.7-1.2-.8-1.8.1l-.8 1.4h-.4v-26c0-1-.2-1.6-3.2-1.5v-.4l6-.4v14.9a5.76 5.76 0 015.5-3.6c3.4 0 7.3 2.6 7.3 8.8.1 5.9-4.3 8.5-7.7 8.5zm-.2-.5c2.5 0 4.9-1.4 4.9-7.7 0-5.3-1.1-8.2-4.9-8.2-3.2 0-4.8 2.4-4.8 5.2v5c0 3.9 1.7 5.7 4.8 5.7z" fill="#fff"/><path data-name="Path 4" d="M129.9 24.2v1.6c0 6.5 2.7 7.8 5.2 7.8s4.2-1.1 5.6-3.4l.3.2a7.009 7.009 0 01-6.5 4.2c-4.6 0-7.8-3.5-7.8-8.6s3.7-8.8 7.5-8.8c4.6 0 6.5 3.2 6.9 7.2h-11.2zm0-.5h7.8c-.3-3.6-1.1-6.2-3.6-6.2s-3.8 1.7-4.2 6.2z" fill="#fff"/><path data-name="Path 5" d="M141.7 17.3l5.8-.2v4.4c1.2-3.1 3-4.6 4.4-4.6a2.017 2.017 0 012.2 1.8 1.538 1.538 0 01-1.5 1.5h-.1c-.7 0-2.1-1.2-2.3-1.2-1.4 0-2.8 2.6-2.8 4v9.1c0 .9.2 1.4 2.7 1.4h.6v.4h-9.1v-.4h.3c2.4 0 2.7-.4 2.7-1.6v-13c0-.6-.4-1.1-3-1.2z" fill="#fff"/><path data-name="Path 6" d="M161.3 34.3c-3.1 0-4.2-1.8-5.3-1.8-.5 0-.7.5-1 1.5h-.3v-6h.4c1.5 3.5 3.6 5.9 6.2 5.9s3.9-1.6 3.9-3.6c0-2.4-2.3-2.8-4.8-3.4-2.7-.7-5.3-1.4-5.3-5.4 0-2.7 2.3-4.6 5.2-4.6 2.2 0 3.5 1 4.2 1 .4 0 .8-.3 1.2-1h.3v5.6h-.4c-.7-2.9-2.7-5.1-5.4-5.1-2.4 0-3.4 1.4-3.4 3 0 2.4 1.9 3 4.2 3.6 2.9.8 5.9 1.3 5.9 5.2 0 3.4-2.8 5.1-5.6 5.1z" fill="#fff"/><path data-name="Path 7" d="M172.4 24.2v1.6c0 6.5 2.7 7.8 5.2 7.8s4.2-1.1 5.6-3.4l.3.2a7.009 7.009 0 01-6.5 4.2c-4.6 0-7.8-3.5-7.8-8.6s3.7-8.8 7.5-8.8c4.6 0 6.5 3.2 6.9 7.2h-11.2zm0-.5h7.8c-.3-3.6-1.1-6.2-3.6-6.2s-3.7 1.7-4.2 6.2z" fill="#fff"/><path data-name="Path 8" d="M192.8 34.5c-4.5 0-8-3-8-8.8a8.625 8.625 0 018.4-8.6c4.6 0 6 2.4 6 4.3a2.162 2.162 0 01-2 2.4c-1.2 0-1.8-.6-1.8-1.4 0-1.4 1.3-2.4 1.3-3.2s-1.7-1.6-3.5-1.6c-2.9 0-5.2 1.7-5.2 8.2 0 6.4 2.8 8 5.2 8a6.725 6.725 0 005.8-3.7l.3.2a6.83 6.83 0 01-6.5 4.2z" fill="#fff"/><path data-name="Path 9" d="M207.9 34.4c-2.8 0-5.3-1.9-5.3-4.7V19.2c0-.9-.3-1.4-2.2-1.4h-.6v-.4l5.6-.2v13c0 2.4 1.1 3.2 3 3.2a5.084 5.084 0 004.9-4.7v-9.5c0-.9-.3-1.4-2.6-1.4h-.8v-.4l6.2-.2v15.3c0 .8.4 1.1 3.5 1.2v.4l-6.3.2v-3.8a5.848 5.848 0 01-5.4 3.9z" fill="#fff"/><path data-name="Path 10" d="M219.5 17.3l5.8-.2v4.4c1.2-3.1 3-4.6 4.4-4.6a2.017 2.017 0 012.2 1.8 1.538 1.538 0 01-1.5 1.5h-.1c-.7 0-2.1-1.2-2.3-1.2-1.4 0-2.8 2.6-2.8 4v9.1c0 .9.2 1.4 2.7 1.4h.6v.4h-9.1v-.4h.4c2.4 0 2.7-.4 2.7-1.6v-13c0-.6-.4-1.1-3-1.2z" fill="#fff"/><path data-name="Path 11" d="M232.4 34v-.4h.4c2.4 0 2.6-.4 2.6-1.6V18.9c0-.6-.3-1-3-1.2v-.4l5.8-.2v15c0 1 .3 1.4 2.7 1.4h.6v.4zm4.2-20.8a1.923 1.923 0 01-1.9-2 1.9 1.9 0 011.9-1.9 1.967 1.967 0 011.9 1.9 1.923 1.923 0 01-1.9 2z" fill="#fff"/><path data-name="Path 12" d="M249.1 34.5c-1.5 0-4.5-1-4.5-4.2V17.9h-3v-.6h3v-6.7h2.8v6.7h4.8v.6h-4.8v12.2c0 2.6 1.1 3.3 2.7 3.3 2.1 0 3.1-1.2 3.1-3.9h.4c.1 3.1-1.3 5-4.5 5z" fill="#fff"/><path data-name="Path 13" d="M261.4 34.2l-6.4-15c-.5-1.1-.7-1.2-2.5-1.4v-.4h8.4v.4c-3 .2-3.4.5-2.6 2.3l4.6 10.8 4.4-10.8c.8-1.9.4-2.3-2.9-2.5v-.4h6.2v.4c-1.6.2-1.7.5-2.6 2.5l-6.7 15.4c-2.3 5.3-3.6 6.6-6.2 6.6-1.7 0-2.9-.9-2.9-2.4a2.23 2.23 0 012-2.4h.2a1.367 1.367 0 011.4 1.4c0 1.2-1.2 1.9-1.2 2.5 0 .2.4.4 1 .4 1.6 0 3.1-1 5-5.6z" fill="#fff"/><path data-name="Path 14" d="M67.8 62V50.8h7.7v1.9h-5.6v3h4.3v1.9h-4.3v4.3z" fill="#fff"/><path data-name="Path 15" d="M83.3 62.2c-3 0-5-2.2-5-5.8s2-5.8 5-5.8 5 2.2 5 5.8-2 5.8-5 5.8zm0-9.7c-1.7 0-2.8 1.5-2.8 3.9s1.1 4 2.9 4 2.8-1.5 2.8-3.9-1.2-4-2.9-4z" fill="#fff"/><path data-name="Path 16" d="M94.3 62h-2.1V50.8h4.1c2.9 0 4.3 1.2 4.3 3.3a3.436 3.436 0 01-2.9 3.4 2.942 2.942 0 011.6 1.5l2.2 3.1h-2.6l-1.8-2.7a2.245 2.245 0 00-2.1-1.2h-.8V62zm1.5-5.7c1.6 0 2.6-.7 2.6-1.9s-.7-1.7-2.2-1.7h-1.8v3.6h1.4z" fill="#fff"/><path data-name="Path 17" d="M109 62.2c-2.6 0-4.4-1.4-4.4-4.6v-6.8h2.2v6.9c0 1.8 1 2.6 2.3 2.6a2.3 2.3 0 002.3-2.6v-6.9h2.1v6.8c0 3.2-1.8 4.6-4.5 4.6z" fill="#fff"/><path data-name="Path 18" d="M127.7 53.4l-2.8 8.6h-2.1l-2.9-8.7-.4 8.6h-2l.6-11.2h3l2.8 8.5 2.8-8.5h3.1l.6 11.2h-2.1z" fill="#fff"/><path data-name="Rectangle 1" fill="#fff" d="M53.8 0h1v75h-1z"/><path data-name="Path 19" d="M19.8 47.3h-.9v3.4h.9c1.2 0 1.9-.6 1.9-1.7s-.7-1.7-1.9-1.7z" fill="#b9a569"/><path data-name="Path 20" d="M8.9 47.3h-.7v3.5h.7c1.3 0 2-.6 2-1.8s-.7-1.7-2-1.7z" fill="#b9a569"/><path data-name="Path 21" d="M1.1 40.1v21.8h40.4V40.1zM9 53h-.7v3.9H5.5V45.2h3.7c2.8 0 4.5 1.3 4.5 3.8s-1.9 4-4.7 4zm13 3.9l-2.4-4h-.7v4h-2.8V45.2h4c2.8 0 4.4 1.3 4.4 3.7a3.246 3.246 0 01-2.2 3.3l3 4.7zm9.8.2c-3.3 0-5.4-2.5-5.4-6.1s2.2-6.1 5.5-6.1 5.5 2.5 5.5 6.1-2.3 6.1-5.6 6.1z" fill="#b9a569"/><path data-name="Path 22" d="M31.8 47.2c-1.6 0-2.6 1.5-2.6 3.8s1 3.8 2.6 3.8 2.6-1.5 2.6-3.8-.9-3.8-2.6-3.8z" fill="#b9a569"/><path data-name="Path 23" d="M24.9 34.6a3.407 3.407 0 01-2.4-.9 2.01 2.01 0 00-.8-.4c-.4 0-.8.1-1.1 1.2h-.4v-7.6h.5c.4 4.3 2 6.9 4.2 6.9 1.5 0 2.5-1.3 2.5-3.8s-1.7-4.3-3.5-6.2-3.8-4-3.8-6.9 1.6-5.4 4.4-5.4a3.227 3.227 0 012.1.8 1.234 1.234 0 00.8.4c.4 0 .7-.3.9-1.1h.4v7.6h-.5c-.4-3.8-1.4-6.9-3.8-6.9-1.6 0-2 1.6-2 2.8 0 2.2 1.5 3.8 3.2 5.5 2 2 4.1 4.2 4.1 7.9 0 3.6-1.9 6.1-4.8 6.1z" fill="#fff"/><path data-name="Path 24" d="M1.7 14.8c-.4-2-.5-2.2-1.2-2.4l-.5-.1v-.5h5.8v.5l-.5.1c-1 .2-1 1.3-.7 2.7L7.2 28l1.9-10.3-.7-3.5c-.3-1.2-.4-1.6-1-1.8l-.4-.1v-.5h6v.5l-.7.1c-1.1.2-.9 1.4-.7 2.7L14.1 28l2.5-12.2c.5-2.5.2-3.2-.8-3.4l-.7-.1v-.5h4.2v.5l-.5.1c-.7.2-.8.9-1.3 3l-4 19.2h-.6l-3.1-15-2.8 15H5.9L1.7 14.8z" fill="#fff"/><path data-name="Path 25" d="M34.6 34.6c2.7 0 4.5-1.9 4.5-5.4V13.8c0-.9.2-1.2.9-1.4l.7-.2v-.5h-6.5v.5l.8.2c.7.1 1 .4 1 1.3v16c0 1.8 0 4.1-1.9 4.1a1.746 1.746 0 01-1.8-1.5 1.891 1.891 0 01.8-1 1.714 1.714 0 001.1-1.6 1.557 1.557 0 00-1.2-1.8h-.1a2.219 2.219 0 00-2.3 2.1v.3a3.86 3.86 0 003.6 4.2.756.756 0 00.4.1z" fill="#fff"/></svg>