<svg width="206" height="107" viewBox="0 0 206 107" fill="none" xmlns="http://www.w3.org/2000/svg">
<path d="M12.7173 78.3225C5.5512 78.3225 0 72.2667 0 63.8894C0 55.5122 6.66144 49.4563 12.4145 49.4563C17.0573 49.4563 18.975 51.8786 19.9843 51.8786C20.7918 51.8786 21.2964 51.1721 21.902 49.86H22.3057V59.4485H21.8011C20.388 54.2001 17.7638 49.961 12.5154 49.961C7.87261 49.961 4.13817 54.4019 4.13817 63.8894C4.13817 70.2481 5.65213 77.616 13.222 77.616C18.7732 77.616 21.1955 73.9825 22.4067 69.9453L22.9113 70.1471C21.3974 75.1937 18.3694 78.3225 12.7173 78.3225Z" fill="black"/>
<path d="M32.096 77.9185L25.6365 62.7789C25.1318 61.6687 24.9299 61.5677 23.1132 61.3659V60.9622H31.5914V61.3659C28.5635 61.5677 28.1597 61.8705 28.9672 63.6873L33.61 74.5878L38.051 63.8892C38.8584 61.9715 38.4547 61.5677 35.124 61.3659V60.9622H41.3817V61.3659C39.7668 61.5677 39.6659 61.8705 38.7575 63.8892L31.9951 79.4325C29.6737 84.7819 28.3616 86.094 25.7374 86.094C24.0216 86.094 22.8104 85.1856 22.8104 83.6716C22.7095 82.4604 23.6178 81.4511 24.829 81.2493H25.0309C25.8383 81.2493 26.4439 81.8549 26.4439 82.6623C26.4439 83.8735 25.2327 84.58 25.2327 85.1856C25.2327 85.3874 25.6365 85.5893 26.242 85.5893C27.8569 85.5893 29.3709 84.58 31.2886 79.9372L32.096 77.9185Z" fill="black"/>
<path d="M50.9702 78.1206C49.1534 78.1206 47.3367 77.5151 46.0246 76.3039C45.2171 75.5974 44.8134 75.4964 44.2078 76.4048L43.4004 77.8178H42.9966V51.5758C42.9966 50.5665 42.7948 49.9609 39.7668 50.0618V49.6581L45.8227 49.2544V64.2931C46.7311 62.0726 48.9516 60.5587 51.3739 60.6596C54.8056 60.6596 58.7419 63.2838 58.7419 69.5415C58.8428 75.5974 54.4018 78.1206 50.9702 78.1206ZM50.6674 77.616C53.1907 77.616 55.613 76.2029 55.613 69.8443C55.613 64.495 54.5028 61.568 50.6674 61.568C47.4376 61.568 45.8227 63.9903 45.8227 66.8164V71.8629C45.9236 75.9002 47.6395 77.616 50.6674 77.616Z" fill="black"/>
<path d="M63.9901 67.8257C63.9901 68.3303 63.8892 68.835 63.8892 69.4406C63.8892 76.0011 66.6143 77.3132 69.1376 77.3132C71.6609 77.3132 73.3767 76.2029 74.7898 73.8815L75.0925 74.0834C73.9823 76.7076 71.3581 78.3225 68.532 78.3225C63.8892 78.3225 60.6594 74.7899 60.6594 69.6424C60.6594 64.4949 64.3939 60.7605 68.2292 60.7605C72.8721 60.7605 74.7898 63.9903 75.1935 68.0275H63.9901V67.8257ZM63.9901 67.321H71.8628C71.56 63.6875 70.7525 61.0633 68.2292 61.0633C65.706 61.0633 64.3939 62.7791 63.9901 67.321Z" fill="black"/>
<path d="M75.9 60.9623L81.754 60.7604V65.2014C82.9652 62.0725 84.7819 60.5586 86.195 60.5586C87.3052 60.4576 88.3145 61.2651 88.4154 62.3753C88.4154 63.1828 87.7089 63.8893 86.9015 63.8893H86.8005C86.094 63.8893 84.681 62.6781 84.4791 62.6781C83.0661 62.6781 81.6531 65.3023 81.6531 66.7154V75.9001C81.6531 76.8084 81.8549 77.3131 84.3782 77.3131H84.9838V77.7168H75.7991V77.3131H76.1019C78.5242 77.3131 78.827 76.9094 78.827 75.6982V62.5772C78.827 61.9716 78.4233 61.4669 75.7991 61.366L75.9 60.9623Z" fill="black"/>
<path d="M95.6824 78.0195C92.5536 78.0195 91.4433 76.2027 90.3331 76.2027C89.8284 76.2027 89.6266 76.7074 89.3238 77.7167H89.021V71.6608H89.4247C90.9387 75.1934 93.0582 77.6158 95.6824 77.6158C98.3066 77.6158 99.6187 76.0009 99.6187 73.9823C99.6187 71.5599 97.2973 71.1562 94.7741 70.5506C92.0489 69.8441 89.4247 69.1376 89.4247 65.1003C89.4247 62.3752 91.7461 60.4575 94.6731 60.4575C96.8936 60.4575 98.2057 61.4668 98.9122 61.4668C99.316 61.4668 99.7197 61.164 100.123 60.4575H100.426V66.1096H100.022C99.316 63.1827 97.2973 60.9622 94.5722 60.9622C92.1499 60.9622 91.1406 62.3752 91.1406 63.9901C91.1406 66.4124 93.0582 67.018 95.3796 67.6236C98.3066 68.4311 101.335 68.9357 101.335 72.872C101.335 76.4046 98.5085 78.0195 95.6824 78.0195Z" fill="black"/>
<path d="M106.886 67.8257V69.4406C106.886 76.0011 109.611 77.3132 112.134 77.3132C114.657 77.3132 116.373 76.2029 117.786 73.8815L118.089 74.0834C116.979 76.7076 114.355 78.3225 111.529 78.3225C106.886 78.3225 103.656 74.7899 103.656 69.6424C103.656 64.4949 107.39 60.7605 111.226 60.7605C115.869 60.7605 117.786 63.9903 118.19 68.0275H106.886V67.8257ZM106.886 67.321H114.758C114.456 63.6875 113.648 61.0633 111.125 61.0633C108.602 61.0633 107.29 62.7791 106.886 67.321Z" fill="black"/>
<path d="M127.476 78.2212C122.934 78.2212 119.401 75.1932 119.401 69.3392C119.401 64.5955 123.136 60.7601 127.88 60.6592C132.522 60.6592 133.935 63.0815 133.935 64.9992C134.036 66.2104 133.229 67.3206 131.917 67.4216C130.706 67.4216 130.1 66.816 130.1 66.0085C130.1 64.5955 131.412 63.5862 131.412 62.7787C131.412 61.9713 129.696 61.1638 127.88 61.1638C124.953 61.1638 122.631 62.8797 122.631 69.4402C122.631 76.0007 125.457 77.5146 127.88 77.5146C130.403 77.4137 132.623 76.0007 133.734 73.7802L134.036 73.9821C132.926 76.2025 131.109 78.2212 127.476 78.2212Z" fill="black"/>
<path d="M142.716 78.2215C139.89 78.2215 137.367 76.3039 137.367 73.4778V62.7791C137.367 61.8707 137.064 61.3661 135.147 61.3661H134.541V60.9624L140.193 60.7605V73.8815C140.193 76.3039 141.303 77.1113 143.221 77.1113C145.845 77.0104 147.965 74.9918 148.167 72.3675V62.7791C148.167 61.8707 147.864 61.3661 145.542 61.3661H144.735V60.9624L150.993 60.7605V76.2029C150.993 77.0104 151.396 77.3132 154.525 77.4141V77.8178L148.167 78.0197V74.1843C147.46 75.6983 146.047 78.2215 142.716 78.2215Z" fill="black"/>
<path d="M154.424 60.9623L160.278 60.7604V65.2014C161.489 62.0725 163.306 60.5586 164.719 60.5586C165.829 60.4576 166.839 61.2651 166.94 62.3753C166.94 63.1828 166.233 63.8893 165.426 63.8893H165.325C164.618 63.8893 163.205 62.6781 163.003 62.6781C161.59 62.6781 160.177 65.3023 160.177 66.7154V75.9001C160.177 76.8084 160.379 77.3131 162.902 77.3131H163.508V77.7168H154.323V77.3131H154.626C157.048 77.3131 157.351 76.9094 157.351 75.6982V62.5772C157.351 61.9716 156.947 61.4669 154.323 61.366L154.424 60.9623Z" fill="black"/>
<path d="M167.444 77.8176V77.4139H167.848C170.27 77.4139 170.472 77.0102 170.472 75.799V62.5771C170.472 61.9715 170.169 61.5678 167.444 61.3659V60.9622L173.298 60.7603V76.0009C173.298 77.0102 173.601 77.4139 176.023 77.4139H176.629V77.8176H167.444ZM171.683 56.824C170.573 56.824 169.766 55.9156 169.766 54.8054C169.766 53.6951 170.674 52.8877 171.683 52.8877C172.693 52.8877 173.601 53.7961 173.601 54.8054C173.601 55.9156 172.794 56.7231 171.683 56.824Z" fill="black"/>
<path d="M184.3 78.3224C182.786 78.3224 179.758 77.3131 179.758 74.0833V61.5679H176.73V60.9623H179.758V54.2H182.584V60.9623H187.429V61.5679H182.584V73.8815C182.584 76.5057 183.694 77.2122 185.309 77.2122C187.429 77.2122 188.438 76.001 188.438 73.2759H188.842C188.842 76.4048 187.53 78.3224 184.3 78.3224Z" fill="black"/>
<path d="M196.714 77.9185L190.255 62.7789C189.75 61.6687 189.548 61.5677 187.732 61.3659V60.9622H196.21V61.3659C193.182 61.5677 192.778 61.8705 193.586 63.6873L198.228 74.5878L202.669 63.8892C203.477 61.9715 203.073 61.5677 199.742 61.3659V60.9622H206V61.3659C204.385 61.5677 204.284 61.8705 203.376 63.8892L196.614 79.4325C194.292 84.7819 192.98 86.094 190.356 86.094C188.64 86.094 187.429 85.1856 187.429 83.6716C187.328 82.4604 188.236 81.3502 189.447 81.2493H189.649C190.457 81.2493 191.062 81.8549 191.062 82.6623C191.062 83.8735 189.851 84.58 189.851 85.1856C189.851 85.3874 190.255 85.5893 190.86 85.5893C192.475 85.5893 193.989 84.58 195.907 79.9372L196.714 77.9185Z" fill="black"/>
<path d="M71.0554 106.078V94.7742H78.8271V96.6919H73.175V99.7198H77.515V101.637H73.175V105.977L71.0554 106.078Z" fill="black"/>
<path d="M86.6996 106.281C83.6717 106.281 81.6531 104.06 81.6531 100.427C81.6531 96.793 83.7726 94.5725 86.6996 94.5725C89.6266 94.5725 91.7462 96.793 91.7462 100.427C91.7462 104.06 89.7275 106.281 86.6996 106.281ZM86.6996 96.4902C84.9838 96.4902 83.8736 98.0042 83.8736 100.427C83.8736 102.849 85.0847 104.464 86.8006 104.464C88.5164 104.464 89.6266 102.95 89.6266 100.527C89.6266 98.1051 88.4154 96.4902 86.6996 96.4902Z" fill="black"/>
<path d="M97.8022 106.078H95.6826V94.7742H99.8208C102.748 94.7742 104.161 95.9853 104.161 98.1049C104.161 99.8207 102.95 101.234 101.234 101.537C101.94 101.839 102.546 102.344 102.849 103.051L105.069 106.179H102.445L100.628 103.454C100.225 102.748 99.4171 102.243 98.6096 102.344H97.8022V106.078ZM99.3161 100.325C100.931 100.325 101.94 99.6189 101.94 98.4077C101.94 97.1965 101.234 96.6919 99.6189 96.6919H97.8022V100.325H99.3161Z" fill="black"/>
<path d="M112.639 106.28C110.015 106.28 108.198 104.867 108.198 101.637V94.7742H110.418V101.738C110.418 103.555 111.428 104.363 112.74 104.363C114.052 104.363 115.061 103.454 115.061 101.738V94.7742H117.181V101.637C117.181 104.766 115.364 106.28 112.639 106.28Z" fill="black"/>
<path d="M131.614 97.3985L128.687 106.079H126.567L123.741 97.2975L123.337 105.978H121.319L121.924 94.6733H124.952L127.778 103.252L130.604 94.6733H133.632L134.238 105.978H132.118L131.614 97.3985Z" fill="black"/>
<path d="M203.376 35.7295H1.51392V36.7388H203.376V35.7295Z" fill="black"/>
<path d="M123.741 7.87231H122.732V11.5058H123.64C124.952 11.5058 125.659 10.9002 125.659 9.68907C125.659 8.4779 125.053 7.87231 123.741 7.87231Z" fill="#B9A569"/>
<path d="M112.336 7.87231H111.529V11.5058H112.235C113.547 11.5058 114.254 10.9002 114.254 9.58814C114.254 8.27604 113.648 7.87231 112.336 7.87231Z" fill="#B9A569"/>
<path d="M104.06 0.201904V23.3151H146.754V0.201904H104.06ZM112.336 13.8276H111.529V17.9657H108.501V5.55124H112.437C115.364 5.55124 117.181 6.86334 117.181 9.58848C117.181 12.3136 115.263 13.8276 112.336 13.8276ZM126.063 17.9657L123.439 13.7266H122.631V17.9657H119.603V5.55124H123.842C126.769 5.55124 128.485 6.86334 128.485 9.48755C128.586 11.0015 127.678 12.4145 126.164 13.0201L129.393 17.9657H126.063ZM136.459 18.1676C133.027 18.1676 130.706 15.5434 130.706 11.708C130.706 7.87265 133.027 5.24845 136.459 5.24845C139.89 5.24845 142.212 7.87265 142.212 11.708C142.212 15.5434 139.991 18.1676 136.459 18.1676Z" fill="#B9A569"/>
<path d="M136.459 7.67065C134.743 7.67065 133.733 9.28555 133.733 11.7079C133.733 14.1302 134.743 15.7451 136.459 15.7451C138.174 15.7451 139.285 14.1302 139.285 11.7079C139.285 9.28555 138.174 7.67065 136.459 7.67065Z" fill="#B9A569"/>
<path d="M83.1671 23.315C82.2587 23.315 81.3503 23.0122 80.7447 22.4067C80.5428 22.2048 80.2401 22.1039 79.9373 22.0029C79.5335 22.0029 79.1298 22.1039 78.827 23.2141H78.4233V15.5434H78.9279C79.3317 19.7825 80.9466 22.5076 83.1671 22.5076C84.681 22.5076 85.6903 21.1955 85.6903 18.6722C85.6903 16.1489 83.9745 14.3322 82.0568 12.4145C80.1391 10.4968 78.2214 8.37727 78.2214 5.45027C78.2214 2.52327 79.8363 0 82.6624 0C83.4698 0 84.1764 0.302793 84.7819 0.807447C84.9838 1.00931 85.2866 1.21117 85.5894 1.21117C85.9931 1.21117 86.2959 0.908378 86.4978 0.100931H86.9015V7.77168H86.3968C85.9931 3.93631 84.9838 0.807447 82.5615 0.807447C80.9466 0.807447 80.5428 2.42234 80.5428 3.63351C80.5428 5.85399 82.0568 7.46889 83.7726 9.18471C85.7913 11.2033 87.9108 13.4238 87.9108 17.1583C87.9108 20.6908 85.9931 23.2141 83.1671 23.315Z" fill="black"/>
<path d="M59.7511 3.22969C59.3474 1.21107 59.2465 1.00921 58.6409 0.807346L58.1362 0.706415V0.201761H63.9902V0.706415L63.4856 0.807346C62.3753 1.00921 62.4763 2.11945 62.7791 3.53248L65.4033 16.5526L67.3209 6.15668L66.6144 2.52317C66.3116 1.312 66.2107 0.908277 65.6051 0.706415L65.2014 0.605485V0.10083H71.2573V0.605485L70.5507 0.706415C69.4405 0.908277 69.6424 2.11945 69.8442 3.43155L72.3675 16.4516L74.8908 4.13807C75.3954 1.61479 75.0926 0.908277 74.0833 0.807346L73.3768 0.706415V0.201761H77.6159V0.706415L77.1112 0.807346C76.4047 1.00921 76.3038 1.71572 75.7991 3.83527L71.7619 23.214H70.8535L67.7247 8.07437L64.8986 23.214H63.7884L59.7511 3.22969Z" fill="black"/>
<path d="M92.9575 23.3149C95.6826 23.3149 97.4994 21.3973 97.4994 17.8647V2.22038C97.4994 1.312 97.7012 1.00921 98.4078 0.807346L99.1143 0.605485V0.10083H92.5538V0.605485L93.3612 0.807346C94.0677 1.00921 94.3705 1.21107 94.3705 2.11945V18.2684C94.3705 20.0852 94.3705 22.4066 92.4528 22.4066C91.5445 22.4066 90.737 21.801 90.6361 20.8926C90.6361 20.4889 91.0398 20.1861 91.4435 19.8833C92.0491 19.5805 92.5538 18.9749 92.5538 18.2684C92.6547 17.4609 92.15 16.6535 91.3426 16.4516H91.2417C90.0305 16.3507 88.9202 17.36 88.9202 18.5712V18.874C88.8193 21.0945 90.5351 23.0121 92.7556 23.1131C92.8566 23.214 92.9575 23.214 92.9575 23.3149Z" fill="black"/>
</svg>
